<svg width="194" height="145" viewBox="0 0 194 145" fill="none" xmlns="http://www.w3.org/2000/svg">
<g opacity="0.5">
<path d="M194 46.5034C194 53.7861 189.052 46.003 183.178 46.003C177.305 46.003 174.16 54.2865 174.16 47.0038C174.611 48.5049 171.004 45.0023 183.365 42C189.239 42 192.647 46.003 194 46.5034Z" fill="#D34848"/>
<circle cx="191" cy="34" r="3" fill="#D34848"/>
<circle cx="178" cy="34" r="3" fill="#D34848"/>
<path d="M106 15.5034C106 22.7861 101.052 15.003 95.1783 15.003C89.305 15.003 86.1603 23.2865 86.1603 16.0038C86.6111 17.5049 83.0042 14.0023 95.3655 11C101.239 11 104.647 15.003 106 15.5034Z" fill="#D34848"/>
<circle cx="103" cy="3" r="3" fill="#D34848"/>
<circle cx="90" cy="3" r="3" fill="#D34848"/>
<path d="M19.9998 49.5034C19.9998 56.7861 15.0515 49.003 9.17825 49.003C3.30497 49.003 0.160293 57.2865 0.160293 50.0038C0.611145 51.5049 -2.99583 48.0023 9.36545 45C15.2387 45 18.6469 49.003 19.9998 49.5034Z" fill="#D34848"/>
<circle cx="17" cy="37" r="3" fill="#D34848"/>
<circle cx="4" cy="37" r="3" fill="#D34848"/>
<path d="M58.9998 141.503C58.9998 148.786 54.0515 141.003 48.1783 141.003C42.305 141.003 39.1603 149.286 39.1603 142.004C39.6111 143.505 36.0042 140.002 48.3655 137C54.2387 137 57.6469 141.003 58.9998 141.503Z" fill="#D34848"/>
<circle cx="56" cy="129" r="3" fill="#D34848"/>
<circle cx="43" cy="129" r="3" fill="#D34848"/>
<path d="M163 141.503C163 148.786 158.052 141.003 152.178 141.003C146.305 141.003 143.16 149.286 143.16 142.004C143.611 143.505 140.004 140.002 152.365 137C158.239 137 161.647 141.003 163 141.503Z" fill="#D34848"/>
<circle cx="160" cy="129" r="3" fill="#D34848"/>
<circle cx="147" cy="129" r="3" fill="#D34848"/>
</g>
</svg>
